<svg xmlns="http://www.w3.org/2000/svg" xmlns:xlink="http://www.w3.org/1999/xlink" viewBox="0 0 430 430" width="430" height="430" preserveAspectRatio="xMidYMid meet" style="width: 100%; height: 100%; transform: translate3d(0px, 0px, 0px); content-visibility: visible;"><defs><clipPath id="__lottie_element_51"><rect width="430" height="430" x="0" y="0"/></clipPath><clipPath id="__lottie_element_53"><path d="M0,0 L430,0 L430,430 L0,430z"/></clipPath><g id="__lottie_element_60"><g style="display: block;" transform="matrix(4.300000190734863,0,0,4.300000190734863,215,215)" opacity="1"><path fill="rgb(255,0,0)" fill-opacity="1" d=" M29.527782440185547,-41.43391418457031 C29.527782440185547,-41.43391418457031 29.527782440185547,41.43391418457031 29.527782440185547,41.43391418457031 C29.527782440185547,41.43391418457031 -29.527782440185547,41.43391418457031 -29.527782440185547,41.43391418457031 C-29.527782440185547,41.43391418457031 -29.527782440185547,-41.43391418457031 -29.527782440185547,-41.43391418457031 C-29.527782440185547,-41.43391418457031 29.527782440185547,-41.43391418457031 29.527782440185547,-41.43391418457031z"/><g opacity="1" transform="matrix(1,0,0,1,0,0)"/></g></g><g id="__lottie_element_66"><g style="display: block;" transform="matrix(4.300000190734863,0,0,4.300000190734863,215,215)" opacity="1"><path fill="rgb(255,0,0)" fill-opacity="1" d=" M29.527782440185547,-41.43391418457031 C29.527782440185547,-41.43391418457031 29.527782440185547,41.43391418457031 29.527782440185547,41.43391418457031 C29.527782440185547,41.43391418457031 -29.527782440185547,41.43391418457031 -29.527782440185547,41.43391418457031 C-29.527782440185547,41.43391418457031 -29.527782440185547,-41.43391418457031 -29.527782440185547,-41.43391418457031 C-29.527782440185547,-41.43391418457031 29.527782440185547,-41.43391418457031 29.527782440185547,-41.43391418457031z"/><g opacity="1" transform="matrix(1,0,0,1,0,0)"/></g></g><filter id="__lottie_element_69" filterUnits="objectBoundingBox" x="0%" y="0%" width="100%" height="100%"><feComponentTransfer in="SourceGraphic"><feFuncA type="table" tableValues="1.0 0.0"/></feComponentTransfer></filter><mask id="__lottie_element_66_2" mask-type="alpha"><g filter="url(#__lottie_element_69)"><rect width="430" height="430" x="0" y="0" fill="#ffffff" opacity="0"/><use xmlns:ns1="http://www.w3.org/1999/xlink" ns1:href="#__lottie_element_66"/></g></mask><filter id="__lottie_element_70" filterUnits="objectBoundingBox" x="0%" y="0%" width="100%" height="100%"><feComponentTransfer in="SourceGraphic"><feFuncA type="table" tableValues="1.0 0.0"/></feComponentTransfer></filter><mask id="__lottie_element_60_2" mask-type="alpha"><g filter="url(#__lottie_element_70)"><rect width="430" height="430" x="0" y="0" fill="#ffffff" opacity="0"/><use xmlns:ns2="http://www.w3.org/1999/xlink" ns2:href="#__lottie_element_60"/></g></mask></defs><g clip-path="url(#__lottie_element_51)"><g clip-path="url(#__lottie_element_53)" transform="matrix(1,0,0,1,0,0)" opacity="1" style="display: block;"><g mask="url(#__lottie_element_60_2)" style="display: block;"><g transform="matrix(4.300000190734863,0,0,4.300000190734863,215,215)" opacity="1"><g opacity="1" transform="matrix(1,0,0,1,0,0)"><path stroke-linecap="round" stroke-linejoin="round" fill-opacity="0" class="primary" stroke="rgb(18,19,49)" stroke-opacity="1" stroke-width="2.87" d=" M25.582759857177734,-35.89867401123047 C25.582759857177734,-35.89867401123047 25.582759857177734,35.89867401123047 25.582759857177734,35.89867401123047 C25.582759857177734,35.89867401123047 -25.582759857177734,35.89867401123047 -25.582759857177734,35.89867401123047 C-25.582759857177734,35.89867401123047 -25.582759857177734,-35.89867401123047 -25.582759857177734,-35.89867401123047 C-25.582759857177734,-35.89867401123047 25.582759857177734,-35.89867401123047 25.582759857177734,-35.89867401123047z"/></g></g></g><g mask="url(#__lottie_element_66_2)" style="display: block;"><g transform="matrix(4.269588947296143,0.5105032324790955,-0.5105032324790955,4.269588947296143,214.84153747558594,214.96839904785156)" opacity="1"><g opacity="1" transform="matrix(-1,0,0,-1,-0.5,-0.375)"><path stroke-linecap="round" stroke-linejoin="round" fill-opacity="0" class="secondary" stroke="rgb(8,168,138)" stroke-opacity="1" stroke-width="2.87" d=" M-0.546999990940094,-6.948855876922607 C-0.546999990940094,-6.948855876922607 -0.546999990940094,6.823855876922607 -0.546999990940094,6.823855876922607 M6.339263439178467,-0.06300000101327896 C6.339263439178467,-0.06300000101327896 -7.43285608291626,-0.06300000101327896 -7.43285608291626,-0.06300000101327896"/></g></g></g><g transform="matrix(4.300000190734863,0,0,4.300000190734863,215,215)" opacity="1" style="display: block;"><g opacity="1" transform="matrix(1,0,0,1,0,0)"><path stroke-linecap="round" stroke-linejoin="round" fill-opacity="0" class="secondary" stroke="rgb(8,168,138)" stroke-opacity="1" stroke-width="2.87" d=" M29.527782440185547,-41.43391418457031 C29.527782440185547,-41.43391418457031 29.527782440185547,41.43391418457031 29.527782440185547,41.43391418457031 C29.527782440185547,41.43391418457031 -29.527782440185547,41.43391418457031 -29.527782440185547,41.43391418457031 C-29.527782440185547,41.43391418457031 -29.527782440185547,-41.43391418457031 -29.527782440185547,-41.43391418457031 C-29.527782440185547,-41.43391418457031 29.527782440185547,-41.43391418457031 29.527782440185547,-41.43391418457031z"/></g></g><g transform="matrix(3.974024534225464,1.6422940492630005,-1.6422940492630005,3.974024534225464,214.50128173828125,214.82078552246094)" opacity="1" style="display: block;"><g opacity="1" transform="matrix(-1,0,0,-1,-0.5,-0.375)"><path stroke-linecap="round" stroke-linejoin="round" fill-opacity="0" class="primary" stroke="rgb(18,19,49)" stroke-opacity="1" stroke-width="2.87" d=" M0.4111231863498688,-7.639198303222656 C0.4111231863498688,-7.639198303222656 1.805763602256775,3.709097146987915 1.805763602256775,3.709097146987915 M8.476822853088379,0.48114094138145447 C8.476822853088379,0.48114094138145447 -9.386842727661133,0.48114094138145447 -9.386842727661133,0.48114094138145447"/></g></g></g></g></svg>