<?xml version="1.0" encoding="UTF-8"?>
<!DOCTYPE svg PUBLIC "-//W3C//DTD SVG 1.1//EN" "http://www.w3.org/Graphics/SVG/1.1/DTD/svg11.dtd">
<svg xmlns="http://www.w3.org/2000/svg" version="1.1" width="1080px" height="1080px" style="shape-rendering:geometricPrecision; text-rendering:geometricPrecision; image-rendering:optimizeQuality; fill-rule:evenodd; clip-rule:evenodd" xmlns:xlink="http://www.w3.org/1999/xlink">
<g><path style="opacity:1" fill="#fefefe" d="M -0.5,-0.5 C 359.5,-0.5 719.5,-0.5 1079.5,-0.5C 1079.5,359.5 1079.5,719.5 1079.5,1079.5C 719.5,1079.5 359.5,1079.5 -0.5,1079.5C -0.5,719.5 -0.5,359.5 -0.5,-0.5 Z"/></g>
<g><path style="opacity:1" fill="#282828" d="M 275.5,117.5 C 241.5,117.5 207.5,117.5 173.5,117.5C 173.5,201.5 173.5,285.5 173.5,369.5C 172.501,285.335 172.167,201.002 172.5,116.5C 207.004,116.168 241.337,116.502 275.5,117.5 Z"/></g>
<g><path style="opacity:1" fill="#000000" d="M 275.5,117.5 C 332.005,121.51 358.505,151.844 355,208.5C 349.849,242.32 330.682,263.486 297.5,272C 290.196,273.217 282.862,274.217 275.5,275C 257.836,275.5 240.17,275.667 222.5,275.5C 222.5,306.833 222.5,338.167 222.5,369.5C 206.167,369.5 189.833,369.5 173.5,369.5C 173.5,285.5 173.5,201.5 173.5,117.5C 207.5,117.5 241.5,117.5 275.5,117.5 Z"/></g>
<g><path style="opacity:1" fill="#fdfdfd" d="M 222.5,156.5 C 239.837,156.333 257.17,156.5 274.5,157C 295.454,161.709 305.788,174.876 305.5,196.5C 306.005,218.153 295.672,230.987 274.5,235C 257.17,235.5 239.837,235.667 222.5,235.5C 222.5,209.167 222.5,182.833 222.5,156.5 Z"/></g>
<g><path style="opacity:1" fill="#020202" d="M 454.5,175.5 C 476.995,172.608 498.328,176.108 518.5,186C 532.406,196.304 540.239,210.137 542,227.5C 542.333,260.167 542.667,292.833 543,325.5C 543.786,328.583 545.619,330.749 548.5,332C 553.846,332.432 559.18,332.266 564.5,331.5C 565.334,341.843 566.334,352.177 567.5,362.5C 567.167,363.5 566.833,364.5 566.5,365.5C 561.438,367.932 556.105,369.432 550.5,370C 543.167,370.667 535.833,370.667 528.5,370C 514.213,367.047 505.046,358.547 501,344.5C 498.415,343.115 496.415,343.782 495,346.5C 486.405,361.892 473.239,370.392 455.5,372C 403.371,374.869 380.537,350.369 387,298.5C 390.845,287.288 397.679,278.454 407.5,272C 425.36,262.781 444.36,257.115 464.5,255C 472.884,253.474 480.884,250.808 488.5,247C 495.085,241.643 497.251,234.809 495,226.5C 492.341,220.508 487.841,216.675 481.5,215C 454.633,211.067 431.966,219.067 413.5,239C 412.167,239.667 410.833,239.667 409.5,239C 402.305,229.069 395.805,218.903 390,208.5C 408.049,190.726 429.549,179.726 454.5,175.5 Z"/></g>
<g><path style="opacity:1" fill="#010101" d="M 645.5,175.5 C 665.744,173.79 685.411,176.29 704.5,183C 714.762,187.119 723.095,193.619 729.5,202.5C 724.187,208.981 718.687,215.314 713,221.5C 709.915,225.093 706.415,228.093 702.5,230.5C 698.048,227.222 693.715,223.722 689.5,220C 684.394,217.39 679.06,215.39 673.5,214C 664.833,213.333 656.167,213.333 647.5,214C 634.323,218.186 630.156,226.686 635,239.5C 640.399,244.951 646.899,248.451 654.5,250C 666.5,252.667 678.5,255.333 690.5,258C 705.07,261.855 717.236,269.355 727,280.5C 735.079,293.385 737.745,307.385 735,322.5C 731.1,343.465 719.266,357.965 699.5,366C 694.35,368.241 689.017,369.907 683.5,371C 648.053,378.011 616.219,370.511 588,348.5C 585.006,345.18 582.506,341.513 580.5,337.5C 589.218,327.118 598.551,317.451 608.5,308.5C 614.313,314.471 620.646,319.971 627.5,325C 645.183,335.902 663.516,337.236 682.5,329C 691.826,319.708 691.826,310.375 682.5,301C 678.055,298.443 673.389,296.443 668.5,295C 656.874,292.177 645.207,289.51 633.5,287C 595.228,275.291 581.395,250.125 592,211.5C 599.016,196.819 610.183,186.652 625.5,181C 632.296,179.137 638.963,177.304 645.5,175.5 Z"/></g>
<g><path style="opacity:1" fill="#020202" d="M 821.5,175.5 C 848.317,171.938 872.983,177.438 895.5,192C 899.016,195.349 902.349,198.849 905.5,202.5C 897.116,212.549 888.116,221.882 878.5,230.5C 873.668,226.508 868.668,222.675 863.5,219C 850.687,213.748 837.354,212.082 823.5,214C 811.836,216.65 807.003,223.817 809,235.5C 810.4,238.902 812.567,241.736 815.5,244C 820.261,246.587 825.261,248.587 830.5,250C 843.196,252.873 855.863,255.873 868.5,259C 906.416,271.664 919.249,297.164 907,335.5C 900.281,351.219 888.781,361.719 872.5,367C 867.543,368.489 862.543,369.822 857.5,371C 826.613,376.954 797.946,371.621 771.5,355C 765.057,350.56 760.057,344.893 756.5,338C 761.945,330.884 767.779,324.051 774,317.5C 777.085,313.907 780.585,310.907 784.5,308.5C 789.938,313.764 795.604,318.931 801.5,324C 819.668,335.812 838.668,337.479 858.5,329C 864.117,323.289 865.95,316.455 864,308.5C 860.145,301.657 854.312,297.49 846.5,296C 834.192,292.893 821.859,289.893 809.5,287C 770.834,274.829 757.001,249.329 768,210.5C 775.772,195.737 787.605,185.57 803.5,180C 809.697,178.7 815.697,177.2 821.5,175.5 Z"/></g>
<g><path style="opacity:1" fill="#fbfbfb" d="M 491.5,275.5 C 493.167,275.5 494.833,275.5 496.5,275.5C 496.666,285.506 496.5,295.506 496,305.5C 489.841,330.666 474.007,340.833 448.5,336C 435.438,330.045 430.271,319.879 433,305.5C 435.474,296.36 441.307,290.526 450.5,288C 459.833,286 469.167,284 478.5,282C 483.368,280.67 487.701,278.504 491.5,275.5 Z"/></g>
<g><path style="opacity:1" fill="#04bf63" d="M 398.5,608.5 C 485.706,604.871 530.706,646.705 533.5,734C 534.93,765.686 527.763,795.186 512,822.5C 493.355,848.751 467.855,863.584 435.5,867C 402.227,871.814 371.56,865.147 343.5,847C 324.702,831.861 311.869,812.695 305,789.5C 297.93,760.789 296.597,731.789 301,702.5C 311.537,648.125 344.037,616.792 398.5,608.5 Z"/></g>
<g><path style="opacity:1" fill="#03bf63" d="M 586.5,611.5 C 620.835,611.333 655.168,611.5 689.5,612C 745.935,616.438 772.435,646.938 769,703.5C 763.09,739.41 742.257,760.91 706.5,768C 700.87,768.966 695.204,769.633 689.5,770C 671.836,770.5 654.17,770.667 636.5,770.5C 636.5,801.833 636.5,833.167 636.5,864.5C 619.833,864.5 603.167,864.5 586.5,864.5C 586.5,780.167 586.5,695.833 586.5,611.5 Z"/></g>
<g><path style="opacity:1" fill="#fefefe" d="M 405.5,651.5 C 448.117,648.308 472.951,667.641 480,709.5C 482.509,731.949 481.842,754.282 478,776.5C 467.29,813.149 442.79,828.982 404.5,824C 377.455,819.623 360.622,804.123 354,777.5C 348.076,751.152 348.076,724.819 354,698.5C 360.912,671.415 378.078,655.749 405.5,651.5 Z"/></g>
<g><path style="opacity:1" fill="#fefefe" d="M 636.5,651.5 C 653.503,651.333 670.503,651.5 687.5,652C 708.682,656.022 719.016,668.856 718.5,690.5C 719.678,712.362 709.678,725.528 688.5,730C 671.17,730.5 653.837,730.667 636.5,730.5C 636.5,704.167 636.5,677.833 636.5,651.5 Z"/></g>
</svg>
